<svg width="114" height="50" viewBox="0 0 114 50" fill="none" xmlns="http://www.w3.org/2000/svg">
<path d="M108.615 0H107.189V50H108.615V0Z" fill="black"/>
<path fill-rule="evenodd" clip-rule="evenodd" d="M71.293 0L50.273 50H51.7L72.72 0H71.293Z" fill="black"/>
<path d="M36.895 0H35.445V50H36.895V0ZM6.393 0H4.967V50H6.393V0Z" fill="black"/>
<path fill-rule="evenodd" clip-rule="evenodd" d="M74.086 6.492L92.36 50H93.786L74.799 4.787L74.086 6.492Z" fill="black"/>
<path d="M31.215 24.335H10.623V25.712H31.215V24.335Z" fill="black"/>
<path fill-rule="evenodd" clip-rule="evenodd" d="M62.726 33.98L62.072 35.38H82.011L81.357 33.98H62.726Z" fill="black"/>
<path fill-rule="evenodd" clip-rule="evenodd" d="M112.145 50H113.571V0H112.145V50ZM102.223 50H103.649V0H102.223V50ZM76.248 0L55.241 50H56.691L60.778 40.262H83.307L87.406 50H88.832L72.802 11.712L77.044 1.623L97.328 50H98.753L77.757 0H76.248ZM72.078 13.475L78.696 29.192H65.531L72.09 13.475H72.078ZM64.878 30.593H79.278L82.724 38.907H61.36L64.878 30.593ZM66.326 0L45.319 50H46.745L67.753 0H66.326ZM40.412 50H41.862V0H40.412V50ZM30.49 0V19.407H11.36V0H9.933V50H11.358V30.593H30.488V50H31.938V0H30.49ZM11.36 20.866H30.49V29.18H11.36V20.866ZM0 50H1.426V0H0V50Z" fill="black"/>
</svg>
