<svg width="800" height="350" viewBox="0 0 800 350" xmlns="http://www.w3.org/2000/svg"
  xmlns:xlink="http://www.w3.org/1999/xlink" data-cache="1709902014237">
  <style>
    path.line-0 {
      stroke-dasharray: 625 630;
      stroke-dashoffset: 625;
      animation: draw-0 5875.476879985461ms ease forwards;
    }

    @keyframes draw-0 {
      0% {
        stroke-dashoffset: 625;
      }

      21.26% {
        stroke-dashoffset: 0;
      }

      100% {
        stroke-dashoffset: 0;
      }
    }

    path.line-1 {
      stroke-dasharray: 1502 1507;
      stroke-dashoffset: 1502;
      animation: draw-1 5875.476879985461ms ease forwards;
    }

    @keyframes draw-1 {
      0% {
        stroke-dashoffset: 1502;
      }

      21.258631740350847% {
        stroke-dashoffset: 1502;
      }

      72.40% {
        stroke-dashoffset: 0;
      }

      100% {
        stroke-dashoffset: 0;
      }
    }

    path.line-2 {
      stroke-dasharray: 61 66;
      stroke-dashoffset: 61;
      animation: draw-2 5875.476879985461ms ease forwards;
    }

    @keyframes draw-2 {
      0% {
        stroke-dashoffset: 61;
      }

      72.40033749929638% {
        stroke-dashoffset: 61;
      }

      74.47% {
        stroke-dashoffset: 0;
      }

      100% {
        stroke-dashoffset: 0;
      }
    }
  </style>
  <rect x="0" y="0" width="800" height="350" fill="transparent">

  </rect>
  <g mask="url(#brush)" transform="translate(90, -80)">
    <path
      d="M54,273.5L55.667,274.167C57.333,274.833,60.667,276.167,64.333,277C68,277.833,72,278.167,75.833,278.167C79.667,278.167,83.333,277.833,89,276.333C94.667,274.833,102.333,272.167,109.333,268.833C116.333,265.5,122.667,261.5,127.833,257.5C133,253.5,137,249.5,141.333,244.5C145.667,239.5,150.333,233.5,154.5,227.667C158.667,221.833,162.333,216.167,165.333,210.333C168.333,204.5,170.667,198.5,172.333,192C174,185.5,175,178.5,174.833,173.167C174.667,167.833,173.333,164.167,170.667,161.5C168,158.833,164,157.167,160.5,158.333C157,159.5,154,163.5,152,167.667C150,171.833,149,176.167,148.333,180.333C147.667,184.5,147.333,188.5,147.167,194C147,199.5,147,206.5,147,214C147,221.5,147,229.5,147,237.167C147,244.833,147,252.167,146.833,259.5C146.667,266.833,146.333,274.167,145.667,282.167C145,290.167,144,298.833,142.833,306.333C141.667,313.833,140.333,320.167,138.5,326.167C136.667,332.167,134.333,337.833,131.5,342.833C128.667,347.833,125.333,352.167,122.167,355.667C119,359.167,116,361.833,112.5,363.333C109,364.833,105,365.167,101.167,364.5C97.333,363.833,93.667,362.167,90.333,360C87,357.833,84,355.167,81.833,352.333C79.667,349.5,78.333,346.5,78.167,342.5C78,338.5,79,333.5,81.833,329.5C84.667,325.5,89.333,322.5,93.5,320.833C97.667,319.167,101.333,318.833,105.333,319C109.333,319.167,113.667,319.833,118,321.167C122.333,322.5,126.667,324.5,130.833,326.5C135,328.5,139,330.5,143,332.333C147,334.167,151,335.833,154.833,337.167C158.667,338.5,162.333,339.5,165.833,340C169.333,340.5,172.667,340.5,176,340.333C179.333,340.167,182.667,339.833,186.5,338.833C190.333,337.833,194.667,336.167,197.333,334.5C200,332.833,201,331.167,201.5,330.333L202,329.5"
      stroke-width="11.17391304347826" stroke-linecap="round" stroke-linejoin="round" stroke="#000" fill="none"
      class="line-0">

    </path>
    <path
      d="M233,300.5L232.333,299C231.667,297.5,230.333,294.5,228.167,292C226,289.5,223,287.5,219.333,289.5C215.667,291.5,211.333,297.5,208.333,303.167C205.333,308.833,203.667,314.167,202.5,319.667C201.333,325.167,200.667,330.833,200.333,335.667C200,340.5,200,344.5,201.333,347.667C202.667,350.833,205.333,353.167,208,353.167C210.667,353.167,213.333,350.833,216.333,347.333C219.333,343.833,222.667,339.167,225.667,334C228.667,328.833,231.333,323.167,233.833,317.5C236.333,311.833,238.667,306.167,240.5,301.333C242.333,296.5,243.667,292.5,244.833,289C246,285.5,247,282.5,246.667,282.833C246.333,283.167,244.667,286.833,243.333,291C242,295.167,241,299.833,240.333,304C239.667,308.167,239.333,311.833,239,316.333C238.667,320.833,238.333,326.167,239.167,330.833C240,335.5,242,339.5,245,341.5C248,343.5,252,343.5,256.667,340.667C261.333,337.833,266.667,332.167,270.667,326.833C274.667,321.5,277.333,316.5,279.667,311.5C282,306.5,284,301.5,285.667,297.167C287.333,292.833,288.667,289.167,288.833,290.333C289,291.5,288,297.5,287,303C286,308.5,285,313.5,284.5,318.167C284,322.833,284,327.167,284.5,331.667C285,336.167,286,340.833,288.833,341.833C291.667,342.833,296.333,340.167,300,336.667C303.667,333.167,306.333,328.833,308.833,324C311.333,319.167,313.667,313.833,316,309.333C318.333,304.833,320.667,301.167,322.333,302C324,302.833,325,308.167,325.333,312.667C325.667,317.167,325.333,320.833,325.5,324.667C325.667,328.5,326.333,332.5,329.333,332.667C332.333,332.833,337.667,329.167,341.667,325C345.667,320.833,348.333,316.167,351,311.667C353.667,307.167,356.333,302.833,358.5,299C360.667,295.167,362.333,291.833,362.833,293.333C363.333,294.833,362.667,301.167,362.167,306.5C361.667,311.833,361.333,316.167,361.333,320.167C361.333,324.167,361.667,327.833,362.833,331.167C364,334.5,366,337.5,369.333,337.333C372.667,337.167,377.333,333.833,381,330.167C384.667,326.5,387.333,322.5,390,318.333C392.667,314.167,395.333,309.833,397.667,305.833C400,301.833,402,298.167,403.833,294.667C405.667,291.167,407.333,287.833,407.5,288.333C407.667,288.833,406.333,293.167,405.5,297.333C404.667,301.5,404.333,305.5,404.167,309.333C404,313.167,404,316.833,405,320.833C406,324.833,408,329.167,411.333,331.333C414.667,333.5,419.333,333.5,423.333,332.167C427.333,330.833,430.667,328.167,434,324.5C437.333,320.833,440.667,316.167,444,311.167C447.333,306.167,450.667,300.833,453.333,296.167C456,291.5,458,287.5,456.5,288C455,288.5,450,293.5,446.5,298.333C443,303.167,441,307.833,439.5,312.333C438,316.833,437,321.167,436.333,326C435.667,330.833,435.333,336.167,436.667,340.333C438,344.5,441,347.5,445,348.667C449,349.833,454,349.167,458.667,347.667C463.333,346.167,467.667,343.833,471.833,341.167C476,338.5,480,335.5,484.167,331.667C488.333,327.833,492.667,323.167,496.667,318C500.667,312.833,504.333,307.167,507.5,300.833C510.667,294.5,513.333,287.5,515.667,279.833C518,272.167,520,263.833,521.667,255.333C523.333,246.833,524.667,238.167,526,229.833C527.333,221.5,528.667,213.5,530.167,205.833C531.667,198.167,533.333,190.833,534.667,183.667C536,176.5,537,169.5,538,163.167C539,156.833,540,151.167,540.5,146.667C541,142.167,541,138.833,539.5,138C538,137.167,535,138.833,532.5,142.333C530,145.833,528,151.167,526.167,157.5C524.333,163.833,522.667,171.167,521,178C519.333,184.833,517.667,191.167,515.833,198.833C514,206.5,512,215.5,509.833,225.667C507.667,235.833,505.333,247.167,503.833,257C502.333,266.833,501.667,275.167,501.333,283C501,290.833,501,298.167,501.333,304.667C501.667,311.167,502.333,316.833,503.667,322C505,327.167,507,331.833,509.333,335.5C511.667,339.167,514.333,341.833,517.5,343.833C520.667,345.833,524.333,347.167,528,347.833C531.667,348.5,535.333,348.5,539.167,347.833C543,347.167,547,345.833,550.333,344.167C553.667,342.5,556.333,340.5,558.167,337.833C560,335.167,561,331.833,561.5,330.167L562,328.5"
      stroke-width="11.17391304347826" stroke-linecap="round" stroke-linejoin="round" stroke="#000" fill="none"
      class="line-1">

    </path>
    <path
      d="M337,282.5L339.167,281.833C341.333,281.167,345.667,279.833,351.167,277.833C356.667,275.833,363.333,273.167,370,270.5C376.667,267.833,383.333,265.167,387.333,263.667C391.333,262.167,392.667,261.833,393.333,261.667L394,261.5"
      stroke-width="11.17391304347826" stroke-linecap="round" stroke-linejoin="round" stroke="#000" fill="none"
      class="line-2">

    </path>
  </g>
</svg>