<svg width="216" height="331" viewBox="0 0 216 331" fill="none" xmlns="http://www.w3.org/2000/svg">
<path d="M156.933 33.9409L193.878 70.1753V124.454L145.287 124.417C145.556 125.835 145.197 126.908 144.964 127.446C144.246 129.024 142.686 130.029 141.018 130.029C140.713 130.029 140.426 130.013 140.157 129.942L139.009 129.511C138.776 129.404 138.521 129.275 138.234 129.167C137.965 129.077 137.552 128.988 137.014 128.952L136.82 128.938C136.695 128.938 136.548 128.917 136.404 128.917H136.139C133.915 128.845 129.283 128.536 125.032 127.316C125.517 127.944 126.144 128.665 126.861 129.418L126.969 129.526C127.345 129.956 127.852 130.441 128.462 130.925C129.161 131.535 129.803 131.998 130.413 132.375L130.485 132.417L130.901 132.683C132.031 133.418 133.265 134.176 134.467 134.893C134.467 134.893 134.492 134.908 134.511 134.908H161.754L193.884 167.647V260.759L156.931 297.014H59.7441L22.791 260.708L22.8057 211.023H71.6904C71.7262 210.898 71.7397 210.75 71.7764 210.607C72.3325 208.67 74.0218 207.542 75.959 206.861C78.2886 206.096 77.5509 205.416 77.5381 205.405H77.5156C75.6681 205.656 74.4664 205.763 73.6055 205.763C72.87 205.763 70.9511 205.764 69.8389 204.114C68.8163 202.625 69.2859 201.103 69.6445 200.117H54.9141L22.791 167.327V70.1187L59.7441 33.9419L59.7471 33.9409H156.933ZM61.5273 38.4263L27.1943 72.0405V165.479L56.7373 195.615L75.7871 195.632C73.6525 197.552 72.9884 199.544 72.6475 200.512C71.9121 202.646 71.1412 203.256 77.8311 202.324C79.9476 202.019 83.8046 200.656 85.6162 199.436C87.392 198.216 90.9074 199.202 90.6025 201.839C88.9522 205.875 84.719 208.404 80.6826 208.907C71.4322 210.068 75.3746 213.505 75.4092 213.535C76.4316 214.234 77.1673 214.916 77.6875 215.526H73.167V215.507H27.2109L27.1924 258.791L61.5078 292.513H155.144L189.458 258.844V169.515L159.915 139.417H136.04C134.139 138.143 131.574 136.726 129.242 135.202C129.242 135.183 129.242 135.183 129.224 135.183C128.327 134.663 127.448 134.017 126.604 133.282C125.905 132.726 125.277 132.133 124.739 131.542C122.677 129.389 121.134 127.147 120.721 126.107C119.949 124.206 120.129 121.801 121.869 122.788C126.282 125.335 133.529 125.82 136.22 125.91C136.526 125.91 138.695 126.161 139.215 126.322C139.751 126.536 140.571 126.928 140.578 126.931C141.672 127.398 143.645 125.891 141.367 123.111C140.775 122.16 139.879 121.066 138.82 119.954H189.456V72.0962L155.146 38.4263H61.5273ZM158.113 143.898L185.068 171.358V256.938L153.374 288.025L144.46 288.008C139.815 287.957 132.851 285.16 130.721 282.559C126.093 276.905 123.595 277.537 120.318 274.175C116.315 270.103 115.383 265.296 115.169 260.257V237.767C115.169 237.767 114.827 233.208 118.359 236.022C121.909 238.845 123.903 238.52 129.874 238.049C135.845 237.57 142.398 243.053 145.837 245.192C149.267 247.322 156.282 252.669 149.036 234.02C147.65 230.427 143.476 227.921 141.32 226.826C139.994 226.107 138.052 223.669 139.849 221.59C139.849 221.59 143.433 218.357 141.5 216.15C140.858 215.363 139.259 214.593 135.726 214.139C131.688 213.643 127.453 211.111 125.802 207.073C125.486 204.438 129.019 203.455 130.772 204.669C132.603 205.91 136.444 207.27 138.574 207.561C145.247 208.493 144.494 207.886 143.758 205.764C143.296 204.455 142.269 201.333 137.915 199.006C128.728 194.105 127.65 195.413 126.059 192.206C125.605 191.29 125.178 185.695 127.385 187.38C127.402 187.397 127.419 187.415 127.453 187.432C127.864 187.877 128.352 188.416 128.959 188.886C131.26 190.7 133.074 190.93 136.299 190.862C139.507 190.785 139.883 192.111 141.175 192.727C142.467 193.334 144.212 194.412 142.612 189.476C140.927 184.258 138.095 180.152 132.654 177.62C130.165 176.456 122.988 171.683 121.713 170.195C120.515 168.818 117.787 164.686 121.105 165.583C124.442 166.465 126.144 168.834 131.833 167.269C131.833 167.269 134.203 166.79 135.632 167.56C137.086 168.312 140.849 167.251 133.801 162.23C128.677 158.552 124.015 158.86 121.482 153.12C121.482 153.12 120.532 151.391 120.994 150.536H120.978C121.192 150.031 122.501 148.705 124.297 149.364C126.059 149.997 132.509 152.829 135.221 153.479C136.658 153.821 137.77 154.351 138.608 154.924C139.815 155.66 143.527 157.029 143.51 154.214C142.877 149.527 142.021 146.336 140.55 143.898H158.113ZM77.8076 220.007C77.1617 220.632 76.4258 220.958 76.4258 220.958C76.3645 220.982 69.2785 223.87 67.3857 228.776C66.0042 232.309 65.144 234.987 64.6777 236.971H64.7129C63.7265 241.385 66.1485 243.233 67.8525 240.992C70.6157 237.39 80.2655 232.361 83.6201 232.061C86.9743 231.753 92.7675 232.061 96.2295 228.348C99.6736 224.618 101.252 224.722 101.252 226.09V232.472H101.251V234.645H101.232V237.904L101.214 237.767V251.394C101.143 257.921 100.676 263.953 98.0752 266.587C95.6175 269.102 91.742 272.045 89.5537 275.509C86.6477 280.077 83.0608 287.504 73.4814 287.974H63.293L31.5986 256.87L31.6162 220.007H77.8076ZM153.374 42.9077L185.068 73.9937L185.077 115.446L133.912 115.5C130.627 112.935 126.931 110.691 123.954 109.758C117.718 107.84 118.428 105.992 118.736 105.526C119.327 105.221 120.191 104.934 121.448 104.701C123.459 104.306 126.324 105.023 126.324 105.023C130.807 105.812 132.705 103.552 129.121 100.898C127.205 99.4627 125.998 99.049 120.566 96.5923C117 94.995 117.496 90.9246 118.882 90.7817C121.029 90.5663 126.829 92.4114 122.757 87.7485C122.727 87.7184 119.589 84.57 117.299 83.6948C115.024 82.7983 117.299 81.3985 118.129 80.9683C118.951 80.5191 121.841 79.7129 117.786 76.5737C117.715 76.5297 110.683 72.1503 113.449 70.0981C116.332 67.9638 117.444 66.2955 114.775 66.1167C112.893 65.973 111.046 65.2732 111.508 63.3364C111.637 62.6546 113.244 61.5253 113.783 60.8257C114.502 59.9293 113.894 59.6044 113.501 59.4966C113.287 59.4598 113.03 59.4253 112.748 59.4253C111.328 59.4441 110.524 58.6182 109.788 56.6636C108.928 53.1477 108.34 50.005 108.334 49.9731C108.3 49.9731 108.265 49.9546 108.205 49.9546C107.598 49.9727 107.564 50.3668 107.153 52.2319C105.75 58.4738 105.069 60.8775 102.666 60.8599C102.361 60.8599 102.109 60.8971 101.894 60.9321C101.499 61.0399 100.907 61.3619 101.605 62.2593C102.593 63.5148 104.924 64.6265 104.961 65.5229C105.015 66.3125 104.369 67.0117 103.454 67.8911C102.505 68.8398 100.181 70.4331 100.173 70.439C100.173 70.439 97.2664 72.2686 96.7461 73.2729C96.1206 74.7915 99.3939 74.7082 99.4189 74.7075C105.338 74.941 102.845 77.1468 101.894 77.4878C100.369 78.0447 99.0951 78.3863 97.5527 79.2827C95.598 80.5565 93.6592 82.5112 93.6592 82.5112C89.5706 87.1739 95.3807 85.3102 97.5342 85.5435C98.9149 85.6863 99.4183 89.7397 95.8486 91.354C93.5706 92.3771 92.0269 93.0575 90.8789 93.5776C90.287 93.9001 88.2251 95.0855 86.9521 96.9331C85.5886 98.9238 89.6969 98.2787 92.4951 98.5122C94.3247 98.655 96.4939 97.13 97.8027 97.2554C99.4529 97.435 99.9749 97.7948 100.226 98.853C100.513 100.019 99.6698 101.165 98.4502 102.188C98.0918 102.672 97.4635 103.05 97.0332 103.248C97.0144 103.248 96.9783 103.265 96.9424 103.284C95.2203 104.378 93.338 105.203 92.5664 105.526C86.97 108.594 78.6462 113.724 75.2021 117.652C72.6377 120.576 74.7365 122.175 75.8486 121.67C76.9607 121.166 78.8623 120.036 81.8398 120.626C84.2437 121.114 87.3827 120.31 89.8584 119.66C92.0287 119.181 94.1268 115.462 94.9883 116.898C97.0333 120.302 93.5168 124.323 92.1182 125.708C89.391 129.421 81.8214 132.791 78.7725 135.297C75.2386 138.223 73.7866 142.048 72.8174 149.542C71.8671 157.06 75.7051 151.697 75.7051 151.697C76.6556 150.533 78.863 147.856 84.4951 147.856C90.1455 147.856 91.222 146.205 93.1943 145.059C96.8001 142.98 94.9346 147.856 94.9346 147.856C92.5308 153.296 88.2443 153.331 83.4727 156.393C83.0424 156.701 82.6458 157.112 81.7314 158.027C79.722 160.054 80.368 160.884 81.4629 160.705C82.557 160.542 84.3156 161.244 86.1445 161.184C88.046 161.116 89.6599 160.721 91.7949 159.772C93.9293 158.814 95.0251 157.06 96.3887 157.958C97.303 158.549 97.1223 160.055 96.8896 161.004C96.8357 162.099 95.4718 164.075 94.7002 164.939C93.4085 166.427 86.2531 171.193 83.7422 172.365C83.4009 172.527 83.0773 172.681 82.7539 172.861C82.665 172.938 82.5573 173.006 82.4316 173.075C79.1313 174.982 76.9424 177.866 76.9424 177.866C76.3676 178.714 73.3737 183.622 77.4629 181.509C81.5526 179.371 87.0239 182.964 89.7324 181.604C91.3116 180.808 90.7726 184.076 90.7188 184.384C90.6999 185.47 90.5224 186.582 90.3428 186.967C89.1417 189.388 88.2259 189.225 83.9033 191.125H58.5762L31.5977 163.605V73.9614L63.292 42.9116L63.2939 42.9077H153.374Z" fill="black"/>
</svg>
