<svg width="216" height="331" viewBox="0 0 216 331" fill="none" xmlns="http://www.w3.org/2000/svg">
<path d="M155.146 38.4263L189.456 72.0962V119.954H138.82C139.879 121.066 140.775 122.16 141.367 123.111C143.645 125.891 141.672 127.398 140.578 126.931C140.571 126.928 139.751 126.536 139.215 126.322C138.695 126.161 136.526 125.91 136.22 125.91C133.529 125.82 126.282 125.335 121.869 122.788C120.129 121.801 119.949 124.206 120.721 126.107C121.134 127.147 122.677 129.389 124.739 131.542C125.277 132.133 125.905 132.726 126.604 133.282C127.448 134.017 128.327 134.663 129.224 135.183C129.242 135.183 129.242 135.183 129.242 135.202C131.574 136.726 134.139 138.143 136.04 139.417H159.915L189.458 169.515V258.844L155.144 292.513H61.5078L27.1924 258.791L27.2109 215.507H73.167V215.526H77.6875C77.1673 214.916 76.4316 214.234 75.4092 213.535C75.3746 213.505 71.4322 210.068 80.6826 208.907C84.719 208.404 88.9522 205.875 90.6025 201.839C90.9074 199.202 87.392 198.216 85.6162 199.436C83.8046 200.656 79.9476 202.019 77.8311 202.324C71.1412 203.256 71.9121 202.646 72.6475 200.512C72.9884 199.544 73.6525 197.552 75.7871 195.632L56.7373 195.615L27.1943 165.479V72.0405L61.5273 38.4263H155.146ZM140.55 143.898C142.021 146.336 142.877 149.527 143.51 154.214C143.527 157.029 139.815 155.66 138.608 154.924C137.77 154.351 136.658 153.821 135.221 153.479C132.509 152.829 126.059 149.997 124.297 149.364C122.501 148.705 121.192 150.031 120.978 150.536H120.994C120.532 151.391 121.482 153.12 121.482 153.12C124.015 158.86 128.677 158.552 133.801 162.23C140.849 167.251 137.086 168.312 135.632 167.56C134.203 166.79 131.833 167.269 131.833 167.269C126.144 168.834 124.442 166.465 121.105 165.583C117.787 164.686 120.515 168.818 121.713 170.195C122.988 171.683 130.165 176.456 132.654 177.62C138.095 180.152 140.927 184.258 142.612 189.476C144.212 194.412 142.467 193.334 141.175 192.727C139.883 192.111 139.507 190.785 136.299 190.862C133.074 190.93 131.26 190.7 128.959 188.886C128.352 188.416 127.864 187.877 127.453 187.432C127.419 187.415 127.402 187.397 127.385 187.38C125.178 185.695 125.605 191.29 126.059 192.206C127.65 195.413 128.728 194.105 137.915 199.006C142.269 201.333 143.296 204.455 143.758 205.764C144.494 207.886 145.247 208.493 138.574 207.561C136.444 207.27 132.603 205.91 130.772 204.669C129.019 203.455 125.486 204.438 125.802 207.073C127.453 211.111 131.688 213.643 135.726 214.139C139.259 214.593 140.858 215.363 141.5 216.15C143.433 218.357 139.849 221.59 139.849 221.59C138.052 223.669 139.994 226.107 141.32 226.826C143.476 227.921 147.65 230.427 149.036 234.02C156.282 252.669 149.267 247.322 145.837 245.192C142.398 243.053 135.845 237.57 129.874 238.049C123.903 238.52 121.909 238.845 118.359 236.022C114.827 233.208 115.169 237.767 115.169 237.767V260.257C115.383 265.296 116.315 270.103 120.318 274.175C123.595 277.537 126.093 276.905 130.721 282.559C132.851 285.16 139.815 287.957 144.46 288.008L153.374 288.025L185.068 256.938V171.358L158.113 143.898H140.55ZM31.5986 256.87L63.293 287.974H73.4814C83.0608 287.504 86.6477 280.077 89.5537 275.509C91.742 272.045 95.6175 269.102 98.0752 266.587C100.676 263.953 101.143 257.921 101.214 251.394V237.767L101.232 237.904V234.645H101.251V232.472H101.252V226.09C101.252 224.722 99.6736 224.618 96.2295 228.348C92.7675 232.061 86.9743 231.753 83.6201 232.061C80.2655 232.361 70.6157 237.39 67.8525 240.992C66.1485 243.233 63.7265 241.385 64.7129 236.971H64.6777C65.144 234.987 66.0042 232.309 67.3857 228.776C69.2785 223.87 76.3645 220.982 76.4258 220.958C76.4258 220.958 77.1617 220.632 77.8076 220.007H31.6162L31.5986 256.87ZM63.292 42.9116L31.5977 73.9614V163.605L58.5762 191.125H83.9033C88.2259 189.225 89.1417 189.388 90.3428 186.967C90.5224 186.582 90.6999 185.47 90.7188 184.384C90.7726 184.076 91.3116 180.808 89.7324 181.604C87.0239 182.964 81.5526 179.371 77.4629 181.509C73.3737 183.622 76.3676 178.714 76.9424 177.866C76.9424 177.866 79.1313 174.982 82.4316 173.075C82.5573 173.006 82.665 172.938 82.7539 172.861C83.0773 172.681 83.4009 172.527 83.7422 172.365C86.2531 171.193 93.4085 166.427 94.7002 164.939C95.4718 164.075 96.8357 162.099 96.8896 161.004C97.1223 160.055 97.303 158.549 96.3887 157.958C95.0251 157.06 93.9293 158.814 91.7949 159.772C89.6599 160.721 88.046 161.116 86.1445 161.184C84.3156 161.244 82.557 160.542 81.4629 160.705C80.368 160.884 79.722 160.054 81.7314 158.027C82.6458 157.112 83.0424 156.701 83.4727 156.393C88.2443 153.331 92.5308 153.296 94.9346 147.856C94.9346 147.856 96.8001 142.98 93.1943 145.059C91.222 146.205 90.1455 147.856 84.4951 147.856C78.863 147.856 76.6556 150.533 75.7051 151.697C75.7051 151.697 71.8671 157.06 72.8174 149.542C73.7866 142.048 75.2386 138.223 78.7725 135.297C81.8214 132.791 89.391 129.421 92.1182 125.708C93.5168 124.323 97.0333 120.302 94.9883 116.898C94.1268 115.462 92.0287 119.181 89.8584 119.66C87.3827 120.31 84.2437 121.114 81.8398 120.626C78.8623 120.036 76.9607 121.166 75.8486 121.67C74.7365 122.175 72.6377 120.576 75.2021 117.652C78.6462 113.724 86.97 108.594 92.5664 105.526C93.338 105.203 95.2203 104.378 96.9424 103.284C96.9783 103.265 97.0144 103.248 97.0332 103.248C97.4635 103.05 98.0918 102.672 98.4502 102.188C99.6698 101.165 100.513 100.019 100.226 98.853C99.9749 97.7948 99.4529 97.435 97.8027 97.2554C96.4939 97.13 94.3247 98.655 92.4951 98.5122C89.6969 98.2787 85.5886 98.9238 86.9521 96.9331C88.2251 95.0855 90.287 93.9001 90.8789 93.5776C92.0269 93.0575 93.5706 92.3771 95.8486 91.354C99.4183 89.7397 98.9149 85.6863 97.5342 85.5435C95.3807 85.3102 89.5706 87.1739 93.6592 82.5112C93.6592 82.5112 95.598 80.5565 97.5527 79.2827C99.0951 78.3863 100.369 78.0447 101.894 77.4878C102.845 77.1468 105.338 74.941 99.4189 74.7075C99.3939 74.7082 96.1206 74.7915 96.7461 73.2729C97.2664 72.2686 100.173 70.439 100.173 70.439C100.181 70.4331 102.505 68.8398 103.454 67.8911C104.369 67.0117 105.015 66.3125 104.961 65.5229C104.924 64.6265 102.593 63.5148 101.605 62.2593C100.907 61.3619 101.499 61.0399 101.894 60.9321C102.109 60.8971 102.361 60.8599 102.666 60.8599C105.069 60.8775 105.75 58.4738 107.153 52.2319C107.564 50.3668 107.598 49.9727 108.205 49.9546C108.265 49.9546 108.3 49.9731 108.334 49.9731C108.34 50.005 108.928 53.1477 109.788 56.6636C110.524 58.6182 111.328 59.4441 112.748 59.4253C113.03 59.4253 113.287 59.4598 113.501 59.4966C113.894 59.6044 114.502 59.9293 113.783 60.8257C113.244 61.5253 111.637 62.6546 111.508 63.3364C111.046 65.2732 112.893 65.973 114.775 66.1167C117.444 66.2955 116.332 67.9638 113.449 70.0981C110.683 72.1503 117.715 76.5297 117.786 76.5737C121.841 79.7129 118.951 80.5191 118.129 80.9683C117.299 81.3985 115.024 82.7983 117.299 83.6948C119.589 84.57 122.727 87.7184 122.757 87.7485C126.829 92.4114 121.029 90.5663 118.882 90.7817C117.496 90.9246 117 94.995 120.566 96.5923C125.998 99.049 127.205 99.4627 129.121 100.898C132.705 103.552 130.807 105.812 126.324 105.023C126.324 105.023 123.459 104.306 121.448 104.701C120.191 104.934 119.327 105.221 118.736 105.526C118.428 105.992 117.718 107.84 123.954 109.758C126.931 110.691 130.627 112.935 133.912 115.5L185.077 115.446L185.068 73.9937L153.374 42.9077H63.2939L63.292 42.9116Z" fill="white"/>
</svg>
